<?xml version="1.0" encoding="utf-8"?>
<!-- Generator: Adobe Illustrator 23.0.0, SVG Export Plug-In . SVG Version: 6.00 Build 0)  -->
<svg version="1.1" id="Camada_1" xmlns="http://www.w3.org/2000/svg" xmlns:xlink="http://www.w3.org/1999/xlink" x="0px" y="0px"
	 viewBox="0 0 512 512" style="enable-background:new 0 0 512 512;" xml:space="preserve">
<style type="text/css">
	.st0{fill:#FFFFFF;}
	.st1{fill:#223D7A;}
</style>
<g>
	<g>
		<rect class="st0" width="512" height="512"/>
		<path class="st1" d="M114.08,404.27c0,1.08,0.54,1.76,0.54,1.76l1.08,1.9c0,0,8,14.92,10.19,18.92c2.18,4,3.27,9.46,6.91,15.64
			c3.64,6.18,14.18,13.82,22.18,16.73c8.01,2.91,11.28-5.82,9.46-14.91c-1.81-9.1-8.73-15.28-8.36-19.65
			c0.36-4.36,1.08-11.27,2.54-15.27c1.45-4,4.73-4.73,6.91-5.81c2.19-1.1,4.37,0.36,7.64-1.1c3.28-1.45,6.56-1.09,6.92-3.64
			c0.36-2.54,10.55-6.55,9.09-8c-1.46-1.46,3.27-1.46,6.55-5.45c3.28-4,1.45-4.73,4.73-5.82c3.27-1.09,10.91-1.82,13.82-2.55
			c2.9-0.72,45.1-28,45.1-28s6.18-1.46,1.82-0.73c-4.36,0.73,9.82-4,8.73,2.18c-1.1,6.19,1.09,6.55,1.45,14.19
			c0.37,7.64-0.72,9.82-5.09,11.28c-4.36,1.45-9.08,5.09-8.36,9.09c0.73,4,3.27,9.09,1.46,10.54c-1.82,1.46-2.91,2.18-1.09,6.19
			c1.83,4,4.37,9.82,2.91,13.46c-1.46,3.64-4.73,18.55,0,32.37c0,0,21.1,3.27,25.83,1.45c0,0,2.97-0.29,7.28,0.18
			c0.47,0.05,0.95,0.11,1.45,0.18c5.09,0.73,41.1,1.46,40.74-6.55c-0.36-8-1.46-10.91-9.46-15.27c-8-4.37-13.45-2.55-19.64-6.55
			c-1.14-0.73-2.01-1.28-2.72-1.72l79.66-180.27c1.84,0.1,3.81-0.24,5.27-1.69c0,0,10.91-10.19,6.18-17.1c0,0,5.46-1.09-1.08-6.54
			c0,0-6.55-6.19-7.28,0.72c0,0-5.09,0-11.28,3.27c-6.18,3.27-2.9,1.09-4.73-1.82c-1.82-2.91-2.9-6.55-6.18-5.09
			c-3.27,1.46-6.91,0.73-8.36-2.18c-1.46-2.91,2.17-9.1-2.91-8.73c-5.09,0.36-2.91-1.09-5.45-7.64c-2.55-6.55-4-20.73-4-20.73
			s-4.38-5.1-3.27-13.09c1.09-8.01,2.2-26.56,0.73-30.92c0,0,4-2.18,2.18-4.73c0,0,11.28,1.46,7.27-3.28c0,0,4.37-3.64,1.82-6.91
			c-2.54-3.27,4.36-4,2.91-5.82l2.55-3.27c0,0,4.72-1.45,3.27-2.91c0,0,6.9,3.27,4-9.1c0,0,9.46-13.82-6.91-26.19
			c0,0-14.91-16.73-28-3.27c0,0-10.91,5.09-9.47,20.73c0,0-7.63,0-5.09,8c0,0-2.91-1.82-5.09,0c0,0-0.73-23.64-6.55-28.01
			c0,0,4.36-9.45-6.18-6.55c0,0-18.91-7.27-32.37-2.18c-13.47,5.09-17.1,4-21.1,9.82c-4,5.82-8.36,15.64-12,21.46
			c-3.64,5.82-4,6.92-7.27,8.73c-3.27,1.82-4.72-1.82-6.55,1.82c-1.82,3.64,1.45,6.55-0.37,8.73c-1.81,2.19-3.63,2.91-6.17,6.91
			c-2.55,4-4.38,6.91-3.27,9.1c0,0-1.1,0.73-1.46,3.27c-0.37,2.54,1.09,4.73-1.09,5.45c-2.18,0.73-2.91-0.73-4.37,1.09
			c-1.46,1.82,0,3.27-4.73,7.64c-4.72,4.36-9.46,13.45-10.18,17.82c0,0,0.07,0.22,0.23,0.54c-0.94,2.08-1.94,4.75-2.49,6.99
			c-0.18,0.75-0.31,1.27-0.38,1.64c-1.9,1.35-10.59,7.79-14.73,15.12c-4.67,8.24-16.76,23.08-18.96,27.2
			c-2.2,4.12-15.94,16.22-16.76,21.99c0,0,15.39-15.67,22.26-22.26c6.87-6.6,26.38-30.22,27.48-34.89c0,0,1.38-3.84,2.75,1.93
			c0.8,3.39,2.38,6.38,4.25,8.84c-0.12,0.19-0.22,0.35-0.36,0.55c-2.91,4.37-1.08,3.64-2.19,7.64c-1.09,4.01-0.72,12.37,3.65,17.46
			c4.36,5.09-18.92,34.92-21.83,53.1c0,0,8.01-12.37,13.83-20.73c5.81-8.37,12.37-20.74,12.73-28.01c0,0,2.91-0.37,6.91,4.36
			c4,4.73,30.2,18.19,36.74,9.09c0,0,0.35,14.92,2.18,24.01c1.81,9.09,4.37,10.92,0,16c-4.37,5.09-4.37,4.37-5.1,12
			c-0.73,7.64,1.82,15.64,1.82,15.64L179,349c0,0-16.74-9.46-20.01,14.19c-0.05,0.36-0.1,0.68-0.14,1.02l-44.07,38.22
			C114.78,402.43,114.08,403.18,114.08,404.27z M379.05,237.7c0,0,0.16,0.07,0.43,0.19l-52.15,118.88c0.06-2.36-0.22-4.55-1.03-6.32
			l0,0c-1.82-4-4.73-4.36,0.37-6.55c5.09-2.18,8.36-8,9.82-16.36c1.46-8.37,7.64-19.28,5.09-23.64c-2.55-4.36-3.63-6.19-4.36-12
			c-0.73-5.82-2.55-12.37-4.01-18.56c-1.46-6.18-1.09-6.91-4-10.91c-2.91-4-4.73-18.55-4.73-22.92c0-0.82,0.37-1.71,0.9-2.7
			c14.03-0.81,14.73-7.74,12.41-13.92c4.63,3.21,9.69,6.31,12.52,6.8c6.17,1.09,11.99,2.91,15.27,3.64
			c3.27,0.73,6.19,1.82,7.28,2.54C372.86,235.88,375.7,237.29,379.05,237.7z M300.85,413.75c-1.45-4.72,0-5.46-0.36-9.82
			c-0.36-4.36,1.81-2.18,2.91-8c1.1-5.82,0.37-8,3.64-11.27c3.27-3.27,9.82-7.27,10.91-11.27c0.53-1.96,1.94-2.44,3.45-3.05
			l-19.95,45.46C301.29,415.26,301.11,414.61,300.85,413.75L300.85,413.75z M300.85,413.75"/>
	</g>
</g>
<rect y="443.3" class="st1" width="512" height="70.49"/>
</svg>
