<?xml version="1.0" encoding="utf-8"?>
<!-- Generator: Adobe Illustrator 23.0.0, SVG Export Plug-In . SVG Version: 6.00 Build 0)  -->
<svg version="1.1" id="Camada_1" xmlns="http://www.w3.org/2000/svg" xmlns:xlink="http://www.w3.org/1999/xlink" x="0px" y="0px"
	 viewBox="0 0 1280.69 489.62" style="enable-background:new 0 0 1280.69 489.62;" xml:space="preserve">
<style type="text/css">
	.st0{fill:#FFFFFF;}
</style>
<g>
	<path class="st0" d="M956.96,271.45c0,0.84,0.42,1.36,0.42,1.36l0.83,1.46c0,0,6.17,11.5,7.85,14.58
		c1.68,3.08,2.52,7.29,5.33,12.06c2.81,4.77,10.93,10.65,17.1,12.9c6.17,2.24,8.69-4.49,7.29-11.5c-1.4-7.01-6.73-11.78-6.44-15.15
		c0.27-3.36,0.83-8.69,1.96-11.77c1.12-3.09,3.64-3.64,5.32-4.48c1.69-0.85,3.37,0.28,5.89-0.85c2.53-1.12,5.06-0.84,5.33-2.8
		c0.28-1.96,8.13-5.05,7.01-6.17c-1.12-1.12,2.52-1.12,5.05-4.2c2.53-3.09,1.12-3.65,3.65-4.49c2.52-0.84,8.41-1.4,10.66-1.97
		c2.24-0.56,34.77-21.59,34.77-21.59s4.76-1.12,1.4-0.56c-3.36,0.56,7.57-3.09,6.73,1.68c-0.85,4.77,0.84,5.05,1.12,10.94
		c0.28,5.89-0.55,7.57-3.93,8.69c-3.36,1.12-7,3.92-6.45,7.01c0.56,3.08,2.52,7.01,1.12,8.13c-1.4,1.12-2.24,1.68-0.84,4.77
		c1.41,3.08,3.37,7.57,2.24,10.37c-1.12,2.8-3.64,14.3,0,24.96c0,0,16.27,2.52,19.91,1.12c0,0,2.29-0.22,5.61,0.14
		c0.36,0.04,0.73,0.09,1.12,0.14c3.92,0.56,31.69,1.12,31.41-5.05c-0.28-6.17-1.13-8.41-7.3-11.77c-6.16-3.37-10.37-1.97-15.14-5.05
		c-0.88-0.56-1.55-0.99-2.1-1.33l61.41-138.97c1.42,0.08,2.94-0.19,4.06-1.3c0,0,8.41-7.85,4.76-13.18c0,0,4.21-0.84-0.83-5.04
		c0,0-5.05-4.77-5.61,0.56c0,0-3.92,0-8.69,2.52c-4.76,2.52-2.24,0.84-3.65-1.4c-1.4-2.24-2.24-5.05-4.77-3.93
		c-2.52,1.12-5.32,0.56-6.44-1.68c-1.12-2.25,1.68-7.01-2.25-6.73c-3.92,0.28-2.24-0.84-4.2-5.89c-1.97-5.05-3.08-15.98-3.08-15.98
		s-3.37-3.93-2.52-10.09c0.84-6.17,1.69-20.47,0.56-23.84c0,0,3.08-1.68,1.68-3.64c0,0,8.7,1.12,5.61-2.53c0,0,3.37-2.81,1.4-5.33
		c-1.96-2.52,3.36-3.09,2.24-4.49l1.97-2.52c0,0,3.64-1.12,2.52-2.24c0,0,5.32,2.52,3.08-7.01c0,0,7.29-10.65-5.33-20.19
		c0,0-11.49-12.9-21.59-2.52c0,0-8.41,3.92-7.3,15.98c0,0-5.89,0-3.92,6.17c0,0-2.25-1.4-3.92,0c0,0-0.56-18.23-5.05-21.59
		c0,0,3.36-7.29-4.76-5.05c0,0-14.58-5.6-24.96-1.68c-10.38,3.92-13.18,3.08-16.27,7.57c-3.08,4.49-6.44,12.06-9.25,16.54
		c-2.8,4.49-3.08,5.33-5.61,6.73c-2.52,1.4-3.64-1.4-5.05,1.4c-1.4,2.8,1.12,5.05-0.28,6.73c-1.4,1.69-2.8,2.25-4.76,5.33
		c-1.97,3.08-3.37,5.33-2.52,7.01c0,0-0.85,0.56-1.12,2.52c-0.28,1.96,0.84,3.64-0.84,4.2c-1.68,0.56-2.24-0.56-3.37,0.84
		c-1.13,1.4,0,2.52-3.65,5.89c-3.64,3.36-7.29,10.37-7.85,13.74c0,0,0.05,0.17,0.18,0.42c-0.73,1.6-1.49,3.66-1.92,5.39
		c-0.14,0.58-0.24,0.98-0.29,1.27c-1.46,1.04-8.16,6-11.36,11.65c-3.6,6.35-12.92,17.79-14.62,20.97
		c-1.69,3.18-12.28,12.5-12.92,16.95c0,0,11.86-12.08,17.16-17.16c5.29-5.09,20.33-23.3,21.18-26.9c0,0,1.07-2.96,2.12,1.49
		c0.62,2.61,1.83,4.92,3.27,6.81c-0.09,0.14-0.17,0.27-0.27,0.43c-2.24,3.37-0.84,2.81-1.69,5.89c-0.84,3.09-0.56,9.53,2.81,13.46
		c3.36,3.93-14.58,26.92-16.83,40.94c0,0,6.17-9.53,10.66-15.98c4.48-6.45,9.53-15.99,9.81-21.59c0,0,2.25-0.28,5.33,3.36
		c3.09,3.65,23.28,14.02,28.33,7.01c0,0,0.27,11.5,1.68,18.51c1.4,7.01,3.37,8.42,0,12.34c-3.37,3.92-3.37,3.37-3.93,9.25
		c-0.56,5.89,1.4,12.06,1.4,12.06l-46.83,42.34c0,0-12.9-7.29-15.43,10.94c-0.04,0.28-0.08,0.52-0.11,0.78l-33.97,29.47
		C957.5,270.04,956.96,270.62,956.96,271.45z M1161.22,143.05c0,0,0.13,0.05,0.33,0.14l-40.2,91.65c0.04-1.82-0.17-3.51-0.79-4.87
		l0,0c-1.4-3.08-3.64-3.36,0.28-5.05c3.92-1.68,6.44-6.17,7.57-12.61c1.13-6.45,5.89-14.87,3.92-18.23
		c-1.97-3.36-2.8-4.77-3.36-9.25c-0.56-4.49-1.97-9.54-3.09-14.3c-1.12-4.76-0.84-5.32-3.08-8.41c-2.24-3.08-3.64-14.3-3.64-17.67
		c0-0.63,0.28-1.32,0.69-2.08c10.82-0.63,11.36-5.97,9.57-10.73c3.57,2.47,7.47,4.86,9.65,5.24c4.76,0.84,9.24,2.24,11.77,2.81
		c2.52,0.56,4.77,1.4,5.61,1.96C1156.45,141.65,1158.64,142.73,1161.22,143.05z M1100.93,278.76c-1.12-3.64,0-4.21-0.28-7.57
		c-0.28-3.36,1.4-1.68,2.24-6.17c0.85-4.49,0.28-6.17,2.81-8.69c2.52-2.52,7.57-5.61,8.41-8.69c0.41-1.51,1.5-1.88,2.66-2.35
		l-15.38,35.04C1101.28,279.93,1101.14,279.43,1100.93,278.76L1100.93,278.76z M1100.93,278.76"/>
	<g>
		<g>
			<path class="st0" d="M310.76,381.64c0.97,12.65,7.62,19.78,19.94,19.78c7.14,0,14.27-2.76,17.51-8.11h21.24
				c-6.16,16.21-20.59,25.62-39.89,25.62c-23.67,0-38.75-17.84-38.75-40.86c0-27.24,21.24-46.7,44.27-46.7
				c26.59,0,41.51,22.05,36.81,50.27H310.76z M312.05,367.37h40.37c-0.97-12-7.78-18.81-18.65-18.81
				C323.24,348.56,315.14,355.53,312.05,367.37z"/>
			<path class="st0" d="M395.71,333.48h19.62l-2.76,15.4c7.3-12.81,18.81-17.68,31.62-16.38l-3.57,19.78
				c-15.57-2.92-28.38,4.05-30.97,18.97l-7.94,45.73h-20.59L395.71,333.48z"/>
			<path class="st0" d="M523.16,396.72c-1.3,7.3-0.81,14.92,0.33,20.27h-18.97c-0.81-2.27-1.78-7.78-1.62-11.84
				c-4.54,7.78-12.97,13.78-24.16,13.78c-17.35,0-31.78-16.7-31.78-40.21c0-28.38,19.62-47.35,39.89-47.35
				c12.97,0,21.57,7.14,25.78,16.86l2.43-14.76h19.13L523.16,396.72z M467.38,377.75c0,14.59,6.97,23.51,17.84,23.51
				c11.35,0,22.54-11.35,22.54-29.51c0-13.46-7.14-23.02-17.67-23.02C478.41,348.72,467.38,360.23,467.38,377.75z"/>
			<path class="st0" d="M616.39,346.78c8.76-11.51,18.97-15.4,29.02-15.4c16.05,0,26.92,14.59,22.7,38.11l-8.43,47.51h-19.46
				l8.43-48.65c1.95-10.86-1.3-19.13-11.67-19.13c-10.21,0-16.38,6.49-18.32,18l-8.59,49.78h-19.62l8.43-48.65
				c1.95-10.86-1.3-19.13-11.67-19.13c-10.21,0-16.38,6.49-18.32,18l-8.59,49.78h-19.62l14.59-83.51h19.13l-2.27,12.65
				c4.87-7.94,12.81-14.76,23.84-14.76C605.85,331.37,613.15,337.05,616.39,346.78z"/>
			<path class="st0" d="M701.18,296.35h19.46l-8.27,47.83c4.87-6.32,12.65-12.81,25.13-12.81c17.02,0,31.62,16.7,31.62,40.21
				c0,28.38-19.62,47.35-40.7,47.35c-13.46,0-22.38-7.46-26.43-17.84l-2.76,15.89H680.1L701.18,296.35z M748.69,372.56
				c0-14.59-7.95-23.84-18.65-23.84c-11.84,0-23.51,11.68-23.51,29.84c0,13.46,7.62,22.7,18.65,22.7
				C737.34,401.26,748.69,390.07,748.69,372.56z"/>
			<path class="st0" d="M848.08,416.99h-18.97l2.27-12.65c-4.86,7.94-12.81,14.59-24.16,14.59c-16.38,0-27.57-13.78-23.35-37.94
				l8.27-47.51h19.62l-8.59,48.65c-2.11,12,1.78,19.13,12.65,19.13c10.05,0,16.7-6.97,18.65-18l8.76-49.78h19.62L848.08,416.99z"/>
			<path class="st0" d="M890.07,296.35h19.46l-20.92,120.64H869L890.07,296.35z"/>
			<path class="st0" d="M988.82,396.72c-1.3,7.3-0.81,14.92,0.32,20.27h-18.97c-0.81-2.27-1.78-7.78-1.62-11.84
				c-4.54,7.78-12.97,13.78-24.16,13.78c-17.35,0-31.78-16.7-31.78-40.21c0-28.38,19.62-47.35,39.89-47.35
				c12.97,0,21.57,7.14,25.78,16.86l2.43-14.76h19.13L988.82,396.72z M933.04,377.75c0,14.59,6.97,23.51,17.84,23.51
				c11.35,0,22.54-11.35,22.54-29.51c0-13.46-7.14-23.02-17.67-23.02C944.07,348.72,933.04,360.23,933.04,377.75z"/>
			<path class="st0" d="M1020.92,333.48h19.13l-2.27,12.65c4.86-7.94,13.3-14.76,24.65-14.76c16.38,0,27.08,14.59,22.86,38.11
				l-8.43,47.51h-19.46l8.43-48.65c1.95-10.86-1.78-19.13-12.48-19.13c-10.54,0-16.86,6.49-18.81,18l-8.59,49.78h-19.62
				L1020.92,333.48z"/>
			<path class="st0" d="M1174.31,416.99h-19.13l1.95-10.86c-4.86,6.32-13.13,12.81-24.65,12.81c-18,0-32.59-16.7-32.59-40.21
				c0-28.38,19.62-47.35,40.7-47.35c13.46,0,22.05,7.95,26.11,17.51l9.08-52.54h19.62L1174.31,416.99z M1120.31,377.75
				c0,14.59,7.3,23.51,18.65,23.51c11.84,0,23.51-11.35,23.51-29.51c0-13.46-7.62-23.02-18.65-23.02
				C1131.66,348.72,1120.31,360.23,1120.31,377.75z"/>
			<path class="st0" d="M1280.34,372.56c0,28.7-20.43,46.37-44.43,46.37c-21.24,0-38.11-17.51-38.11-41.02
				c0-27.4,20.43-46.54,44.43-46.54C1263.64,331.37,1280.34,349.05,1280.34,372.56z M1260.08,372.4c0-14.27-8.11-23.51-19.13-23.51
				c-12.49,0-23.03,11.67-23.03,29.02c0,14.92,7.95,23.51,19.3,23.51C1249.7,401.42,1260.08,389.58,1260.08,372.4z"/>
		</g>
		<g>
			<path class="st0" d="M319.33,452.91l-5.87,36.7H129.95l5.87-36.7l64.6-24.22l57.99-367.03l-57.26-24.96L207.02,0h232.7
				c37.68,0,68.88,12.37,93.59,37.07c24.71,24.72,37.07,55.42,37.07,92.13c0,7.83-0.73,15.91-2.2,24.22
				c-3.43,20.55-10.53,40.13-21.29,58.72c-10.77,18.6-24.22,35-40.38,49.18c-16.15,14.2-34.26,25.21-54.32,33.03
				c-20.07,7.83-40.38,11.74-60.93,11.74H281.16l-19.09,122.59L319.33,452.91z M290.7,245.18h110.11c25.44,0,48.56-8.92,69.37-26.79
				c20.8-17.86,33.15-39.51,37.07-64.96c0.97-4.89,1.47-9.78,1.47-14.68c0-22.5-7.34-40.98-22.02-55.42
				c-14.68-14.43-33.53-21.65-56.52-21.65H320.07L290.7,245.18z"/>
		</g>
		<g>
			<path class="st0" d="M42.92,244.34c-28.3,0-42.09-17.9-36.77-47.42l9.68-54.43H0.34l4.11-24.68h15.73l6.05-35.08h29.03
				l-5.81,35.08H75.1l-4.11,24.68H45.1l-9.92,55.4c-2.42,14.03,2.9,20.56,15.24,20.56c2.9,0,6.05-0.48,8.71-0.97l-4.35,25.4
				C51.39,243.62,46.79,244.34,42.92,244.34z"/>
			<path class="st0" d="M207.18,176.12c0,42.82-30.48,69.19-66.29,69.19c-31.69,0-56.85-26.13-56.85-61.21
				c0-40.88,30.48-69.43,66.29-69.43C182.26,114.67,207.18,141.04,207.18,176.12z M149.84,61.69h18.63l24.19,37.26h-24.43
				l-11.85-17.18l-16.69,17.18H113.8L149.84,61.69z M176.94,175.88c0-21.29-12.1-35.08-28.55-35.08c-18.63,0-34.35,17.42-34.35,43.3
				c0,22.26,11.85,35.08,28.79,35.08C161.46,219.18,176.94,201.52,176.94,175.88z"/>
		</g>
	</g>
</g>
</svg>
