<?xml version="1.0" encoding="utf-8"?>
<!-- Generator: Adobe Illustrator 22.1.0, SVG Export Plug-In . SVG Version: 6.00 Build 0)  -->
<svg version="1.1" id="Layer_1" xmlns="http://www.w3.org/2000/svg" xmlns:xlink="http://www.w3.org/1999/xlink" x="0px" y="0px"
	 viewBox="0 0 702.2 268.6" style="enable-background:new 0 0 702.2 268.6;" xml:space="preserve">
<style type="text/css">
	.st0{fill:#FFFFFF;}
</style>
<g>
	<g>
		<path class="st0" d="M170.3,209.4c0.5,6.9,4.2,10.9,10.9,10.9c3.9,0,7.8-1.5,9.6-4.4h11.7c-3.4,8.9-11.3,14.1-21.9,14.1
			c-13,0-21.3-9.8-21.3-22.4c0-14.9,11.7-25.6,24.3-25.6c14.6,0,22.8,12.1,20.2,27.6h-33.5V209.4z M171,201.6h22.2
			c-0.5-6.6-4.3-10.3-10.2-10.3C177.1,191.3,172.7,195.1,171,201.6z"/>
		<path class="st0" d="M216.9,183h10.8l-1.5,8.5c4-7,10.3-9.7,17.3-9l-2,10.9c-8.5-1.6-15.6,2.2-17,10.4l-4.4,25.1h-11.3L216.9,183z
			"/>
		<path class="st0" d="M286.8,217.7c-0.7,4-0.4,8.2,0.2,11.1h-10.4c-0.4-1.2-1-4.3-0.9-6.5c-2.5,4.3-7.1,7.6-13.3,7.6
			c-9.5,0-17.4-9.2-17.4-22.1c0-15.6,10.8-26,21.9-26c7.1,0,11.8,3.9,14.1,9.3l1.3-8.1h10.5L286.8,217.7z M256.2,207.3
			c0,8,3.8,12.9,9.8,12.9c6.2,0,12.4-6.2,12.4-16.2c0-7.4-3.9-12.6-9.7-12.6C262.3,191.4,256.2,197.7,256.2,207.3z"/>
		<path class="st0" d="M338,190.3c4.8-6.3,10.4-8.5,15.9-8.5c8.8,0,14.8,8,12.5,20.9l-4.6,26.1h-10.7l4.6-26.7
			c1.1-6-0.7-10.5-6.4-10.5c-5.6,0-9,3.6-10.1,9.9l-4.7,27.3h-10.8l4.6-26.7c1.1-6-0.7-10.5-6.4-10.5c-5.6,0-9,3.6-10.1,9.9
			l-4.7,27.3h-10.8l8-45.8h10.5l-1.2,6.9c2.7-4.4,7-8.1,13.1-8.1C332.2,181.8,336.2,185,338,190.3z"/>
		<path class="st0" d="M384.5,162.6h10.7l-4.5,26.2c2.7-3.5,6.9-7,13.8-7c9.3,0,17.3,9.2,17.3,22.1c0,15.6-10.8,26-22.3,26
			c-7.4,0-12.3-4.1-14.5-9.8l-1.5,8.7H373L384.5,162.6z M410.6,204.4c0-8-4.4-13.1-10.2-13.1c-6.5,0-12.9,6.4-12.9,16.4
			c0,7.4,4.2,12.5,10.2,12.5C404.3,220.2,410.6,214.1,410.6,204.4z"/>
		<path class="st0" d="M465.1,228.8h-10.4l1.2-6.9c-2.7,4.4-7,8-13.3,8c-9,0-15.1-7.6-12.8-20.8l4.5-26.1h10.8l-4.7,26.7
			c-1.2,6.6,1,10.5,6.9,10.5c5.5,0,9.2-3.8,10.2-9.9l4.8-27.3h10.8L465.1,228.8z"/>
		<path class="st0" d="M488.1,162.6h10.7l-11.5,66.2h-10.8L488.1,162.6z"/>
		<path class="st0" d="M542.3,217.7c-0.7,4-0.4,8.2,0.2,11.1h-10.4c-0.4-1.2-1-4.3-0.9-6.5c-2.5,4.3-7.1,7.6-13.3,7.6
			c-9.5,0-17.4-9.2-17.4-22.1c0-15.6,10.8-26,21.9-26c7.1,0,11.8,3.9,14.1,9.3l1.3-8.1h10.5L542.3,217.7z M511.7,207.3
			c0,8,3.8,12.9,9.8,12.9c6.2,0,12.4-6.2,12.4-16.2c0-7.4-3.9-12.6-9.7-12.6C517.7,191.4,511.7,197.7,511.7,207.3z"/>
		<path class="st0" d="M559.9,183h10.5l-1.2,6.9c2.7-4.4,7.3-8.1,13.5-8.1c9,0,14.9,8,12.5,20.9l-4.6,26.1h-10.7l4.6-26.7
			c1.1-6-1-10.5-6.8-10.5s-9.3,3.6-10.3,9.9l-4.7,27.3h-10.8L559.9,183z"/>
		<path class="st0" d="M644.1,228.8h-10.5l1.1-6c-2.7,3.5-7.2,7-13.5,7c-9.9,0-17.9-9.2-17.9-22.1c0-15.6,10.8-26,22.3-26
			c7.4,0,12.1,4.4,14.3,9.6l5-28.8h10.8L644.1,228.8z M614.4,207.3c0,8,4,12.9,10.2,12.9c6.5,0,12.9-6.2,12.9-16.2
			c0-7.4-4.2-12.6-10.2-12.6C620.7,191.4,614.4,197.7,614.4,207.3z"/>
		<path class="st0" d="M702.2,204.4c0,15.7-11.2,25.4-24.4,25.4c-11.7,0-20.9-9.6-20.9-22.5c0-15,11.2-25.5,24.4-25.5
			C693.1,181.8,702.2,191.5,702.2,204.4z M691.1,204.4c0-7.8-4.4-12.9-10.5-12.9c-6.8,0-12.6,6.4-12.6,15.9
			c0,8.2,4.4,12.9,10.6,12.9C685.4,220.3,691.1,213.8,691.1,204.4z"/>
	</g>
	<g>
		<path class="st0" d="M175,248.5l-3.2,20.1H71.1l3.2-20.1l35.4-13.3l31.8-201.4l-31.4-13.7L113.3,0H241c20.7,0,37.8,6.8,51.3,20.3
			c13.6,13.6,20.3,30.4,20.3,50.5c0,4.3-0.4,8.7-1.2,13.3c-1.9,11.3-5.8,22-11.7,32.2c-5.9,10.2-13.3,19.2-22.2,27
			c-8.9,7.8-18.8,13.8-29.8,18.1c-11,4.3-22.2,6.4-33.4,6.4h-60.4l-10.5,67.3L175,248.5z M159.3,134.6h60.4c14,0,26.6-4.9,38.1-14.7
			c11.4-9.8,18.2-21.7,20.3-35.6c0.5-2.7,0.8-5.4,0.8-8.1c0-12.3-4-22.5-12.1-30.4c-8.1-7.9-18.4-11.9-31-11.9h-60.4L159.3,134.6z"
			/>
	</g>
	<g>
		<path class="st0" d="M23.4,134.1c-15.5,0-23.1-9.8-20.2-26l5.3-29.9H0l2.3-13.5h8.6l3.3-19.2h15.9l-3.2,19.2H41l-2.3,13.5H24.5
			l-5.4,30.4c-1.3,7.7,1.6,11.3,8.4,11.3c1.6,0,3.3-0.3,4.8-0.5l-2.4,13.9C28,133.7,25.5,134.1,23.4,134.1z"/>
		<path class="st0" d="M113.5,96.7c0,23.5-16.7,38-36.4,38c-17.4,0-31.2-14.3-31.2-33.6C45.9,78.7,62.6,63,82.3,63
			C99.8,63,113.5,77.4,113.5,96.7z M82,33.9h10.2l13.3,20.4H92.1l-6.5-9.4l-9.2,9.4H62.2L82,33.9z M96.9,96.5
			c0-11.7-6.6-19.2-15.7-19.2c-10.2,0-18.8,9.6-18.8,23.8c0,12.2,6.5,19.2,15.8,19.2C88.4,120.3,96.9,110.6,96.9,96.5z"/>
	</g>
</g>
</svg>
